# xmcd
# Track frame offsets:
# 150
# 14396
# 25832
# 53050
# 65312
# 81576
# 98172
# 110125
# 124741
#
# Disc length: 1819 seconds
# Revision: 0
# Processed by: cddbd v1.5.2PL0 Copyright (c) Steve Scherf et al.
# Submitted via: VisiTrax 2.11.2.271 - For more info visit www.synapsa.com
#
DISCID=74071909
DTITLE=Morrison, Matt 'the rumble' - Gemini
DYEAR=2012
DGENRE=Soul, R and B, Surf
TTITLE0=Morrison, Matt - That's How It Is
TTITLE1=Morrison, Matt - Lear Jet
TTITLE2=Morrison, Matt - Sinking
TTITLE3=Morrison, Matt - Polarised
TTITLE4=Morrison, Matt - Are You Doin' Me Wrong
TTITLE5=Morrison, Matt - Space Walk
TTITLE6=Morrison, Matt - C'mon Move On
TTITLE7=Morrison, Matt - Undertaker, The
TTITLE8=Morrison, Matt - Mustang
EXTD=
EXTT0=
EXTT1=
EXTT2=
EXTT3=
EXTT4=
EXTT5=
EXTT6=
EXTT7=
EXTT8=
PLAYORDER=
